<?xml version="1.0" standalone="no"?>
<!DOCTYPE svg PUBLIC "-//W3C//DTD SVG 20010904//EN"
 "http://www.w3.org/TR/2001/REC-SVG-20010904/DTD/svg10.dtd">
<svg version="1.0" xmlns="http://www.w3.org/2000/svg"
 width="600.000000pt" height="600.000000pt" viewBox="0 0 600.000000 600.000000"
 preserveAspectRatio="xMidYMid meet">
<metadata>
Created by potrace 1.14, written by Peter Selinger 2001-2017
</metadata>
<g transform="translate(0.000000,600.000000) scale(0.100000,-0.100000)"
fill="#000000" stroke="none">
<path d="M2910 5853 c-49 -8 -156 -46 -205 -73 -27 -15 -81 -45 -120 -65 -38
-21 -71 -42 -73 -46 -2 -5 -8 -9 -13 -9 -5 0 -28 -12 -52 -27 -23 -15 -58 -36
-77 -46 -94 -51 -123 -68 -272 -158 -51 -31 -120 -71 -153 -88 -33 -18 -78
-43 -100 -57 -22 -13 -47 -27 -55 -31 -8 -3 -26 -14 -40 -23 -14 -9 -50 -30
-80 -47 -88 -48 -158 -89 -225 -130 -11 -7 -39 -22 -62 -34 -24 -13 -43 -26
-43 -30 0 -4 -12 -10 -27 -14 -16 -3 -35 -12 -43 -19 -16 -14 -277 -166 -284
-166 -3 0 -48 -27 -101 -60 -53 -33 -98 -60 -101 -60 -16 0 -123 -78 -167
-123 -88 -87 -125 -145 -160 -252 -19 -58 -20 -97 -24 -1305 -2 -841 0 -1258
7 -1285 32 -122 57 -178 112 -249 30 -40 107 -107 147 -130 11 -6 44 -24 73
-40 29 -16 65 -37 80 -47 14 -11 28 -19 31 -19 3 0 109 -61 237 -135 127 -74
233 -135 234 -135 2 0 39 -21 82 -46 44 -25 86 -49 94 -54 8 -5 80 -47 160
-93 80 -47 170 -99 200 -116 30 -18 62 -36 70 -41 20 -13 404 -234 645 -372
228 -130 259 -141 395 -142 132 -2 177 14 376 130 78 45 264 153 415 239 151
87 279 161 284 165 6 4 30 19 55 33 86 48 506 290 613 353 60 35 110 64 113
64 2 0 30 17 61 37 32 21 60 38 63 38 3 0 37 19 75 41 39 23 115 67 170 99
146 83 178 109 240 190 42 55 80 135 92 195 13 63 15 256 16 1335 l1 1220 -28
83 c-15 45 -46 109 -68 142 -45 68 -143 160 -211 199 -25 14 -79 46 -119 71
-40 25 -85 50 -99 56 -14 7 -95 53 -178 103 -84 50 -154 91 -156 91 -3 0 -42
22 -87 49 -46 27 -99 58 -119 69 -77 43 -84 47 -89 53 -3 3 -25 16 -50 28 -25
12 -67 36 -95 53 -27 17 -75 44 -105 61 -30 17 -66 38 -79 49 -13 10 -28 18
-33 18 -6 0 -69 36 -142 79 -72 43 -152 91 -178 105 -111 60 -136 75 -198 113
-60 37 -108 63 -235 133 -85 47 -181 72 -280 75 -49 1 -101 0 -115 -2z"/>
</g>
</svg>
